inDegrees=no
DataType=double
version=3
OpenSimVersion=4.4-2022-10-11-798caa840
endheader
time	elv_angle	shoulder_elv	shoulder_rot	elbow_flexion	pro_sup	deviation	flexion
0.0000000000	0.3316125572	0.6806784272	0.1718343049	1.9083667994	0.0000000000	0.0000000000	0.0000000000
0.0041702867	0.3316125572	0.6806784272	0.1571492404	1.9293096066	0.0000000000	0.0000000000	0.0000000000
0.0083405734	0.3316125572	0.6806784272	0.1563277692	1.9303435087	0.0000000000	0.0000000000	0.0000000000
0.0125108601	0.3316125572	0.6806784272	0.1562822759	1.9303950071	0.0000000000	0.0000000000	0.0000000000
0.0166811468	0.3316125572	0.6806784272	0.1562812179	1.9303957224	0.0000000000	0.0000000000	0.0000000000
0.0208514335	0.3316125572	0.6806784272	0.1562805027	1.9303963184	0.0000000000	0.0000000000	0.0000000000
0.0250217202	0.3316125572	0.6806784272	0.1562800407	1.9303966761	0.0000000000	0.0000000000	0.0000000000
0.0291920070	0.3316125572	0.6806784272	0.1562797278	1.9303967953	0.0000000000	0.0000000000	0.0000000000
0.0333622937	0.3316125572	0.6806784272	0.1562795341	1.9303969145	0.0000000000	0.0000000000	0.0000000000
0.0375325804	0.3316125572	0.6806784272	0.1562795341	1.9303969145	0.0000000000	0.0000000000	0.0000000000
0.0417028671	0.3316125572	0.6806784272	0.1562795341	1.9303969145	0.0000000000	0.0000000000	0.0000000000
0.0458731538	0.3316125572	0.6806784272	0.1562795341	1.9303969145	0.0000000000	0.0000000000	0.0000000000
0.0500434405	0.3316125572	0.6806784272	0.1562795341	1.9303969145	0.0000000000	0.0000000000	0.0000000000
0.0542137272	0.3316125572	0.6806784272	0.1562795341	1.9303969145	0.0000000000	0.0000000000	0.0000000000
0.0583840139	0.3316125572	0.6806784272	0.1562795341	1.9303969145	0.0000000000	0.0000000000	0.0000000000
0.0625543006	0.3316125572	0.6806784272	0.1562795341	1.9303969145	0.0000000000	0.0000000000	0.0000000000
0.0667245873	0.3316125572	0.6806784272	0.1562795341	1.9303969145	0.0000000000	0.0000000000	0.0000000000
0.0708948740	0.3316125572	0.6806784272	0.1562795341	1.9303969145	0.0000000000	0.0000000000	0.0000000000
0.0750651607	0.3316125572	0.6806784272	0.1562795341	1.9303969145	0.0000000000	0.0000000000	0.0000000000
0.0792354474	0.3316125572	0.6806784272	0.1562795341	1.9303969145	0.0000000000	0.0000000000	0.0000000000
0.0834057341	0.3316125572	0.6806784272	0.1562795341	1.9303969145	0.0000000000	0.0000000000	0.0000000000
0.0875760209	0.3316125572	0.6806784272	0.1562795341	1.9303969145	0.0000000000	0.0000000000	0.0000000000
0.0917463076	0.3316125572	0.6806784272	0.1562795341	1.9303969145	0.0000000000	0.0000000000	0.0000000000
0.0959165943	0.3316125572	0.6806784272	0.1562795341	1.9303969145	0.0000000000	0.0000000000	0.0000000000
0.1000868810	0.3316125572	0.6806784272	0.1562795341	1.9303969145	0.0000000000	0.0000000000	0.0000000000
0.1042571677	0.3316125572	0.6806784272	0.1562795341	1.9303969145	0.0000000000	0.0000000000	0.0000000000
0.1084274544	0.3316125572	0.6806784272	0.1562795341	1.9303969145	0.0000000000	0.0000000000	0.0000000000
0.1125977411	0.3316125572	0.6806784272	0.1562795341	1.9303969145	0.0000000000	0.0000000000	0.0000000000
0.1167680278	0.3316125572	0.6806784272	0.1562795341	1.9303969145	0.0000000000	0.0000000000	0.0000000000
0.1209383145	0.3316125572	0.6806784272	0.1562795341	1.9303969145	0.0000000000	0.0000000000	0.0000000000
0.1251086012	0.3316125572	0.6806784272	0.1562795341	1.9303969145	0.0000000000	0.0000000000	0.0000000000
0.1292788879	0.3316125572	0.6806784272	0.1562795341	1.9303969145	0.0000000000	0.0000000000	0.0000000000
0.1334491746	0.3316125572	0.6806784272	0.1562795341	1.9303969145	0.0000000000	0.0000000000	0.0000000000
0.1376194613	0.3316125572	0.6806784272	0.1562795341	1.9303969145	0.0000000000	0.0000000000	0.0000000000
0.1417897480	0.3316125572	0.6806784272	0.1562795341	1.9303969145	0.0000000000	0.0000000000	0.0000000000
0.1459600348	0.3316125572	0.6806784272	0.1562795341	1.9303969145	0.0000000000	0.0000000000	0.0000000000
0.1501303215	0.3316125572	0.6806784272	0.1562795341	1.9303969145	0.0000000000	0.0000000000	0.0000000000
0.1543006082	0.3316125572	0.6806784272	0.1562795341	1.9303969145	0.0000000000	0.0000000000	0.0000000000
0.1584708949	0.3316125572	0.6806784272	0.1562795341	1.9303969145	0.0000000000	0.0000000000	0.0000000000
0.1626411816	0.3316125572	0.6806784272	0.1562795341	1.9303969145	0.0000000000	0.0000000000	0.0000000000
0.1668114683	0.3316125572	0.6806784272	0.1562795341	1.9303969145	0.0000000000	0.0000000000	0.0000000000
0.1709817550	0.3316125572	0.6806784272	0.1562795341	1.9303969145	0.0000000000	0.0000000000	0.0000000000
0.1751520417	0.3316125572	0.6806784272	0.1562795341	1.9303969145	0.0000000000	0.0000000000	0.0000000000
0.1793223284	0.3316125572	0.6806784272	0.1562795341	1.9303969145	0.0000000000	0.0000000000	0.0000000000
0.1834926151	0.3316125572	0.6806784272	0.1562795341	1.9303969145	0.0000000000	0.0000000000	0.0000000000
0.1876629018	0.3316125572	0.6806784272	0.1562795341	1.9303969145	0.0000000000	0.0000000000	0.0000000000
0.1918331885	0.3316125572	0.6806784272	0.1562795341	1.9303969145	0.0000000000	0.0000000000	0.0000000000
0.1960034752	0.3316125572	0.6806784272	0.1562795341	1.9303969145	0.0000000000	0.0000000000	0.0000000000
0.2001737619	0.3316125572	0.6806784272	0.1562795341	1.9303969145	0.0000000000	0.0000000000	0.0000000000
0.2043440487	0.3316125572	0.6806784272	0.1562795341	1.9303969145	0.0000000000	0.0000000000	0.0000000000
0.2085143354	0.3316125572	0.6806784272	0.1562795341	1.9303969145	0.0000000000	0.0000000000	0.0000000000
0.2126846221	0.3316125572	0.6806784272	0.1562795341	1.9303969145	0.0000000000	0.0000000000	0.0000000000
0.2168549088	0.3316125572	0.6806784272	0.1562795341	1.9303969145	0.0000000000	0.0000000000	0.0000000000
0.2210251955	0.3316125572	0.6806784272	0.1562795341	1.9303969145	0.0000000000	0.0000000000	0.0000000000
0.2251954822	0.3316125572	0.6806784272	0.1562795341	1.9303969145	0.0000000000	0.0000000000	0.0000000000
0.2293657689	0.3316125572	0.6806784272	0.1562795341	1.9303969145	0.0000000000	0.0000000000	0.0000000000
0.2335360556	0.3316125572	0.6806784272	0.1562795341	1.9303969145	0.0000000000	0.0000000000	0.0000000000
0.2377063423	0.3316125572	0.6806784272	0.1562795341	1.9303969145	0.0000000000	0.0000000000	0.0000000000
0.2418766290	0.3316125572	0.6806784272	0.1562795341	1.9303969145	0.0000000000	0.0000000000	0.0000000000
0.2460469157	0.3316125572	0.6806784272	0.1562795341	1.9303969145	0.0000000000	0.0000000000	0.0000000000
0.2502172024	0.3316125572	0.6806784272	0.1562795341	1.9303969145	0.0000000000	0.0000000000	0.0000000000
0.2543874891	0.3316125572	0.6806784272	0.1562795341	1.9303969145	0.0000000000	0.0000000000	0.0000000000
0.2585577758	0.3316125572	0.6806784272	0.1562795341	1.9303969145	0.0000000000	0.0000000000	0.0000000000
0.2627280626	0.3316125572	0.6806784272	0.1562795341	1.9303969145	0.0000000000	0.0000000000	0.0000000000
0.2668983493	0.3316125572	0.6806784272	0.1562795341	1.9303969145	0.0000000000	0.0000000000	0.0000000000
0.2710686360	0.3316125572	0.6806784272	0.1562795341	1.9303969145	0.0000000000	0.0000000000	0.0000000000
0.2752389227	0.3316125572	0.6806784272	0.1562795341	1.9303969145	0.0000000000	0.0000000000	0.0000000000
0.2794092094	0.3316125572	0.6806784272	0.1562795341	1.9303969145	0.0000000000	0.0000000000	0.0000000000
0.2835794961	0.3316125572	0.6806784272	0.1562795341	1.9303969145	0.0000000000	0.0000000000	0.0000000000
0.2877497828	0.3316125572	0.6806784272	0.1562795341	1.9303969145	0.0000000000	0.0000000000	0.0000000000
0.2919200695	0.3316125572	0.6806784272	0.1562795341	1.9303969145	0.0000000000	0.0000000000	0.0000000000
0.2960903562	0.3316125572	0.6806784272	0.1562795341	1.9303969145	0.0000000000	0.0000000000	0.0000000000
0.3002606429	0.3316125572	0.6806784272	0.1562795341	1.9303969145	0.0000000000	0.0000000000	0.0000000000
0.3044309296	0.3316125572	0.6806784272	0.1562795341	1.9303969145	0.0000000000	0.0000000000	0.0000000000
0.3086012163	0.3316125572	0.6806784272	0.1562795341	1.9303969145	0.0000000000	0.0000000000	0.0000000000
0.3127715030	0.3316125572	0.6806784272	0.1562795341	1.9303969145	0.0000000000	0.0000000000	0.0000000000
